<svg width="100" height="100" viewBox="0 0 100 100" fill="none" xmlns="http://www.w3.org/2000/svg">
  <path d="M50 0C22.4 0 0 22.4 0 50C0 77.6 22.4 100 50 100C77.6 100 100 77.6 100 50C100 22.4 77.6 0 50 0ZM50 90C27.9 90 10 72.1 10 50C10 27.9 27.9 10 50 10C72.1 10 90 27.9 90 50C90 72.1 72.1 90 50 90Z" fill="#0EA5E9"/>
  <path d="M65.7 65.7C70.4 61 73.3 54.7 73.3 48C73.3 34.7 62.7 24 49.3 24C36 24 25.3 34.7 25.3 48C25.3 54.7 28.2 61 32.9 65.7C37.6 70.4 44 73.3 50.7 73.3C57.3 73.3 61 70.4 65.7 65.7Z" fill="#0EA5E9"/>
  <path d="M59.3 46.7C59.3 51.3 55.3 56 50.7 56C46 56 42 51.3 42 46.7C42 42 46 38 50.7 38C55.3 38 59.3 42 59.3 46.7Z" fill="white"/>
  <path d="M40 66.7C40 66.7 45.3 58.7 50.7 58.7C56 58.7 61.3 66.7 61.3 66.7C61.3 66.7 57.3 70.7 50.7 70.7C44 70.7 40 66.7 40 66.7Z" fill="white"/>
</svg>
